<?xml version="1.0" encoding="UTF-8"?>
<svg xmlns="http://www.w3.org/2000/svg" xmlns:xlink="http://www.w3.org/1999/xlink" width="50px" height="50px" viewBox="0 0 50 50" version="1.1">
<g id="surface1">
<path style=" stroke:none;fill-rule:nonzero;fill:rgb(2.352941%,63.921571%,83.529413%);fill-opacity:1;" d="M 24.910156 0.457031 C 25.003906 0.457031 25.101562 0.457031 25.203125 0.457031 C 26.621094 0.464844 28.003906 0.496094 29.394531 0.78125 C 29.492188 0.800781 29.59375 0.820312 29.695312 0.839844 C 33.851562 1.671875 37.703125 3.476562 40.917969 6.25 C 40.992188 6.3125 41.066406 6.375 41.140625 6.441406 C 42.425781 7.566406 43.621094 8.777344 44.628906 10.15625 C 44.710938 10.269531 44.796875 10.382812 44.878906 10.492188 C 45.46875 11.292969 45.992188 12.125 46.484375 12.988281 C 46.546875 13.097656 46.613281 13.207031 46.679688 13.320312 C 48.035156 15.738281 48.859375 18.464844 49.316406 21.191406 C 49.335938 21.316406 49.359375 21.4375 49.378906 21.566406 C 50.308594 27.972656 48.546875 34.558594 44.726562 39.746094 C 44.238281 40.378906 43.714844 40.976562 43.175781 41.566406 C 42.988281 41.777344 42.804688 41.992188 42.621094 42.207031 C 42.339844 42.527344 42.039062 42.808594 41.710938 43.082031 C 41.570312 43.203125 41.433594 43.328125 41.300781 43.457031 C 36.855469 47.640625 30.445312 49.738281 24.414062 49.609375 C 17.824219 49.371094 11.597656 46.667969 7.03125 41.886719 C 6.867188 41.695312 6.703125 41.503906 6.542969 41.308594 C 6.464844 41.222656 6.386719 41.132812 6.308594 41.042969 C 2.117188 36.296875 0.0664062 29.800781 0.429688 23.519531 C 0.570312 21.492188 0.90625 19.488281 1.515625 17.546875 C 1.539062 17.464844 1.5625 17.378906 1.589844 17.292969 C 1.777344 16.738281 1.777344 16.738281 2.152344 16.542969 C 2.441406 16.503906 2.441406 16.503906 2.714844 16.601562 C 3.007812 16.867188 3.007812 16.984375 3.027344 17.382812 C 2.949219 17.765625 2.832031 18.132812 2.714844 18.507812 C 2.472656 19.332031 2.261719 20.148438 2.113281 20.996094 C 2.097656 21.082031 2.082031 21.167969 2.066406 21.253906 C 1.921875 22.097656 1.839844 22.925781 1.835938 23.78125 C 1.835938 23.867188 1.835938 23.953125 1.832031 24.042969 C 1.804688 26.636719 1.804688 26.636719 2.148438 29.199219 C 2.167969 29.296875 2.1875 29.390625 2.207031 29.492188 C 3.035156 33.402344 4.703125 37.003906 7.324219 40.039062 C 7.390625 40.113281 7.453125 40.191406 7.523438 40.269531 C 8.542969 41.429688 9.625 42.515625 10.867188 43.433594 C 11.03125 43.550781 11.191406 43.675781 11.351562 43.796875 C 14.285156 46 17.792969 47.328125 21.386719 47.949219 C 21.453125 47.960938 21.523438 47.972656 21.59375 47.984375 C 27.210938 48.972656 33.441406 47.433594 38.097656 44.191406 C 38.558594 43.863281 39.007812 43.515625 39.453125 43.164062 C 39.507812 43.121094 39.558594 43.078125 39.617188 43.035156 C 41.035156 41.910156 42.359375 40.605469 43.425781 39.140625 C 43.5625 38.953125 43.699219 38.769531 43.839844 38.585938 C 46.726562 34.683594 48.195312 29.867188 48.175781 25.035156 C 48.175781 24.945312 48.175781 24.855469 48.175781 24.761719 C 48.167969 23.421875 48.128906 22.117188 47.851562 20.800781 C 47.832031 20.707031 47.8125 20.613281 47.792969 20.515625 C 47.039062 16.839844 45.496094 13.484375 43.164062 10.546875 C 43.121094 10.492188 43.078125 10.441406 43.035156 10.382812 C 41.90625 8.960938 40.597656 7.636719 39.125 6.5625 C 38.964844 6.445312 38.808594 6.324219 38.648438 6.203125 C 33.804688 2.566406 27.519531 1.183594 21.570312 2.015625 C 17.980469 2.558594 14.464844 3.90625 11.523438 6.054688 C 11.46875 6.09375 11.414062 6.136719 11.355469 6.175781 C 10.707031 6.65625 10.089844 7.160156 9.496094 7.707031 C 9.300781 7.886719 9.101562 8.058594 8.898438 8.226562 C 7.578125 9.386719 6.46875 10.839844 5.523438 12.316406 C 5.335938 12.542969 5.148438 12.664062 4.882812 12.792969 C 4.574219 12.714844 4.425781 12.628906 4.199219 12.402344 C 4.125 11.996094 4.207031 11.765625 4.429688 11.429688 C 4.53125 11.289062 4.632812 11.148438 4.734375 11.011719 C 4.789062 10.9375 4.84375 10.863281 4.898438 10.789062 C 5.5 9.96875 6.128906 9.191406 6.8125 8.441406 C 7.023438 8.210938 7.226562 7.980469 7.429688 7.746094 C 7.722656 7.414062 8.027344 7.117188 8.363281 6.835938 C 8.539062 6.6875 8.710938 6.535156 8.882812 6.382812 C 12.078125 3.53125 16.070312 1.707031 20.246094 0.855469 C 20.316406 0.839844 20.390625 0.824219 20.464844 0.808594 C 20.707031 0.761719 20.949219 0.722656 21.191406 0.683594 C 21.300781 0.667969 21.410156 0.648438 21.523438 0.628906 C 22.652344 0.46875 23.769531 0.453125 24.910156 0.457031 Z M 24.910156 0.457031 "/>
<path style=" stroke:none;fill-rule:nonzero;fill:rgb(2.352941%,65.098041%,83.137256%);fill-opacity:1;" d="M 24.753906 6.503906 C 25 6.507812 25.246094 6.503906 25.492188 6.503906 C 26.9375 6.5 28.359375 6.675781 29.753906 7.0625 C 29.832031 7.082031 29.90625 7.101562 29.984375 7.125 C 32.824219 7.917969 35.382812 9.355469 37.53125 11.378906 C 37.785156 11.621094 37.785156 11.621094 38.050781 11.828125 C 38.40625 12.109375 38.675781 12.445312 38.964844 12.792969 C 39.007812 12.84375 39.050781 12.894531 39.09375 12.945312 C 39.855469 13.855469 40.515625 14.796875 41.113281 15.820312 C 41.164062 15.910156 41.164062 15.910156 41.21875 16 C 42 17.332031 42.546875 18.785156 42.949219 20.277344 C 42.96875 20.339844 42.984375 20.40625 43.003906 20.472656 C 43.363281 21.882812 43.507812 23.300781 43.496094 24.753906 C 43.492188 25 43.496094 25.246094 43.496094 25.492188 C 43.5 26.9375 43.324219 28.359375 42.9375 29.753906 C 42.917969 29.832031 42.898438 29.90625 42.875 29.984375 C 42.082031 32.8125 40.65625 35.332031 38.667969 37.484375 C 38.511719 37.65625 38.367188 37.828125 38.226562 38.007812 C 37.914062 38.367188 37.574219 38.660156 37.207031 38.964844 C 37.15625 39.007812 37.105469 39.050781 37.054688 39.09375 C 36.144531 39.855469 35.203125 40.515625 34.179688 41.113281 C 34.089844 41.164062 34.089844 41.164062 34 41.21875 C 32.667969 42 31.214844 42.546875 29.722656 42.949219 C 29.660156 42.96875 29.59375 42.984375 29.527344 43.003906 C 28.117188 43.363281 26.699219 43.507812 25.246094 43.496094 C 25 43.492188 24.753906 43.496094 24.507812 43.496094 C 23.0625 43.5 21.640625 43.324219 20.246094 42.9375 C 20.167969 42.917969 20.09375 42.898438 20.015625 42.875 C 17.1875 42.082031 14.667969 40.65625 12.515625 38.667969 C 12.34375 38.511719 12.171875 38.367188 11.992188 38.226562 C 11.632812 37.914062 11.339844 37.574219 11.035156 37.207031 C 10.992188 37.15625 10.949219 37.105469 10.90625 37.054688 C 10.144531 36.144531 9.484375 35.203125 8.886719 34.179688 C 8.851562 34.121094 8.816406 34.0625 8.78125 34 C 8 32.667969 7.453125 31.214844 7.050781 29.722656 C 7.03125 29.660156 7.015625 29.59375 6.996094 29.527344 C 6.636719 28.117188 6.492188 26.699219 6.503906 25.246094 C 6.507812 25 6.503906 24.753906 6.503906 24.507812 C 6.5 23.0625 6.675781 21.640625 7.0625 20.246094 C 7.082031 20.167969 7.101562 20.09375 7.125 20.015625 C 7.898438 17.253906 9.277344 14.730469 11.226562 12.621094 C 11.398438 12.433594 11.5625 12.238281 11.726562 12.042969 C 12.046875 11.664062 12.414062 11.355469 12.792969 11.035156 C 12.875 10.960938 12.960938 10.886719 13.046875 10.8125 C 15.125 9.011719 17.628906 7.765625 20.277344 7.050781 C 20.339844 7.03125 20.40625 7.015625 20.472656 6.996094 C 21.882812 6.636719 23.300781 6.492188 24.753906 6.503906 Z M 14.746094 11.132812 C 14.664062 11.195312 14.582031 11.257812 14.496094 11.320312 C 12.398438 12.945312 10.789062 14.933594 9.570312 17.285156 C 9.539062 17.34375 9.507812 17.40625 9.476562 17.464844 C 8.457031 19.445312 7.808594 21.789062 7.792969 24.023438 C 7.792969 24.09375 7.792969 24.167969 7.789062 24.242188 C 7.761719 26.445312 7.761719 26.445312 8.105469 28.613281 C 8.125 28.695312 8.144531 28.777344 8.167969 28.863281 C 9.328125 33.425781 12.066406 37.367188 16.128906 39.796875 C 16.511719 40.019531 16.894531 40.226562 17.285156 40.429688 C 17.386719 40.484375 17.488281 40.535156 17.59375 40.589844 C 21.699219 42.597656 26.4375 42.746094 30.730469 41.292969 C 31.34375 41.074219 31.933594 40.8125 32.519531 40.527344 C 32.578125 40.5 32.640625 40.46875 32.703125 40.441406 C 36.660156 38.515625 39.808594 34.925781 41.285156 30.785156 C 41.804688 29.242188 42.195312 27.609375 42.207031 25.976562 C 42.207031 25.871094 42.207031 25.871094 42.210938 25.757812 C 42.238281 23.554688 42.238281 23.554688 41.894531 21.386719 C 41.875 21.304688 41.855469 21.222656 41.832031 21.136719 C 41.242188 18.824219 40.308594 16.660156 38.867188 14.746094 C 38.804688 14.664062 38.742188 14.582031 38.679688 14.496094 C 37.054688 12.398438 35.070312 10.789062 32.714844 9.570312 C 32.65625 9.539062 32.59375 9.507812 32.535156 9.476562 C 26.9375 6.601562 19.722656 7.324219 14.746094 11.132812 Z M 14.746094 11.132812 "/>
<path style=" stroke:none;fill-rule:nonzero;fill:rgb(2.352941%,64.705884%,83.137256%);fill-opacity:1;" d="M 26.414062 13.25 C 26.859375 13.660156 27.089844 13.933594 27.148438 14.550781 C 27.265625 14.570312 27.386719 14.585938 27.507812 14.605469 C 28.367188 14.796875 29.410156 15.308594 29.941406 16.03125 C 30.3125 16.738281 30.425781 17.410156 30.210938 18.191406 C 29.933594 18.839844 29.40625 19.308594 28.757812 19.574219 C 27.710938 19.742188 27.082031 19.46875 26.179688 18.960938 C 25.6875 18.691406 25.265625 18.601562 24.707031 18.652344 C 24.359375 18.769531 24.101562 18.875 23.828125 19.121094 C 23.683594 19.441406 23.710938 19.589844 23.828125 19.921875 C 24.234375 20.359375 24.707031 20.636719 25.25 20.875 C 25.320312 20.90625 25.390625 20.9375 25.464844 20.972656 C 25.789062 21.117188 26.113281 21.261719 26.441406 21.40625 C 28.597656 22.355469 28.597656 22.355469 29.492188 23.046875 C 29.566406 23.101562 29.636719 23.15625 29.710938 23.210938 C 30.878906 24.160156 31.527344 25.585938 31.738281 27.050781 C 31.894531 28.917969 31.402344 30.664062 30.183594 32.109375 C 29.507812 32.824219 28.589844 33.34375 27.636719 33.59375 C 27.507812 33.59375 27.378906 33.59375 27.246094 33.59375 C 27.25 33.710938 27.253906 33.828125 27.257812 33.949219 C 27.296875 35.859375 27.296875 35.859375 26.789062 36.410156 C 26.234375 36.902344 25.855469 36.949219 25.117188 36.941406 C 24.582031 36.894531 24.339844 36.65625 23.992188 36.273438 C 23.757812 35.9375 23.71875 35.6875 23.722656 35.285156 C 23.722656 35.199219 23.722656 35.113281 23.722656 35.023438 C 23.722656 34.886719 23.722656 34.886719 23.722656 34.746094 C 23.726562 34.65625 23.726562 34.5625 23.726562 34.46875 C 23.726562 34.242188 23.726562 34.015625 23.730469 33.789062 C 23.632812 33.777344 23.632812 33.777344 23.527344 33.765625 C 22.058594 33.574219 20.480469 32.769531 19.46875 31.683594 C 19.089844 31.1875 18.882812 30.628906 18.910156 29.996094 C 19.023438 29.308594 19.277344 28.757812 19.839844 28.339844 C 20.472656 27.933594 21.039062 27.835938 21.777344 27.929688 C 22.347656 28.105469 22.808594 28.496094 23.289062 28.839844 C 24.058594 29.351562 24.855469 29.589844 25.78125 29.492188 C 26.359375 29.316406 26.707031 29.003906 27.050781 28.515625 C 27.21875 28.011719 27.21875 27.539062 27.019531 27.042969 C 26.515625 26.164062 25.308594 25.789062 24.433594 25.382812 C 23.222656 24.8125 22.015625 24.21875 20.996094 23.339844 C 20.917969 23.28125 20.839844 23.222656 20.757812 23.164062 C 19.921875 22.445312 19.214844 21.210938 19.125 20.097656 C 19.082031 18.535156 19.1875 17.363281 20.214844 16.113281 C 20.269531 16.046875 20.328125 15.976562 20.382812 15.90625 C 21.203125 15.007812 22.339844 14.441406 23.535156 14.257812 C 23.632812 14.257812 23.726562 14.257812 23.828125 14.257812 C 23.835938 14.207031 23.839844 14.152344 23.847656 14.097656 C 23.988281 13.6875 24.25 13.363281 24.640625 13.167969 C 25.230469 12.984375 25.859375 12.980469 26.414062 13.25 Z M 25 14.550781 C 24.960938 14.679688 24.925781 14.808594 24.894531 14.941406 C 24.761719 15.300781 24.761719 15.300781 24.535156 15.425781 C 24.3125 15.480469 24.097656 15.515625 23.871094 15.546875 C 23.710938 15.574219 23.550781 15.605469 23.390625 15.632812 C 23.316406 15.648438 23.238281 15.664062 23.160156 15.679688 C 22.238281 15.875 21.578125 16.472656 20.996094 17.1875 C 20.417969 18.128906 20.300781 19.03125 20.410156 20.117188 C 20.703125 21.328125 21.503906 22.242188 22.539062 22.902344 C 23.675781 23.589844 24.882812 24.167969 26.078125 24.75 C 27.152344 25.277344 27.890625 25.738281 28.351562 26.878906 C 28.535156 27.890625 28.457031 28.746094 27.882812 29.613281 C 27.40625 30.21875 26.738281 30.617188 25.976562 30.761719 C 24.550781 30.882812 23.300781 30.457031 22.160156 29.621094 C 21.773438 29.34375 21.488281 29.179688 20.996094 29.199219 C 20.6875 29.324219 20.539062 29.457031 20.324219 29.710938 C 20.167969 30.097656 20.179688 30.265625 20.3125 30.664062 C 21.167969 31.683594 22.542969 32.257812 23.808594 32.5625 C 24.28125 32.683594 24.511719 32.8125 24.804688 33.203125 C 24.894531 33.476562 24.917969 33.660156 24.925781 33.945312 C 24.929688 34.03125 24.933594 34.117188 24.9375 34.207031 C 24.941406 34.386719 24.949219 34.570312 24.953125 34.753906 C 24.957031 34.839844 24.960938 34.925781 24.964844 35.011719 C 24.964844 35.09375 24.96875 35.171875 24.96875 35.253906 C 24.984375 35.472656 24.984375 35.472656 25.195312 35.644531 C 25.433594 35.695312 25.433594 35.695312 25.683594 35.644531 C 25.960938 35.355469 26.011719 35.15625 26.007812 34.761719 C 26.011719 34.667969 26.011719 34.574219 26.011719 34.480469 C 26.011719 34.285156 26.011719 34.089844 26.011719 33.894531 C 26.023438 33.179688 26.023438 33.179688 26.273438 32.8125 C 26.613281 32.582031 26.933594 32.453125 27.320312 32.332031 C 28.613281 31.875 29.457031 31.191406 30.066406 29.929688 C 30.632812 28.570312 30.605469 27.183594 30.074219 25.8125 C 29.175781 23.851562 27.074219 23.050781 25.207031 22.257812 C 24.113281 21.789062 23.203125 21.355469 22.558594 20.3125 C 22.375 19.757812 22.371094 19.164062 22.613281 18.628906 C 22.945312 18.054688 23.378906 17.703125 24.003906 17.492188 C 25.179688 17.195312 26.1875 17.449219 27.222656 18.042969 C 27.320312 18.105469 27.421875 18.164062 27.523438 18.230469 C 27.90625 18.390625 28.117188 18.367188 28.515625 18.261719 C 28.855469 17.960938 28.988281 17.777344 29.066406 17.328125 C 28.964844 16.785156 28.617188 16.5625 28.1875 16.257812 C 27.742188 15.988281 27.261719 15.84375 26.769531 15.691406 C 26.289062 15.546875 26.289062 15.546875 26.074219 15.332031 C 26.015625 15.132812 25.976562 14.9375 25.933594 14.734375 C 25.886719 14.527344 25.886719 14.527344 25.683594 14.355469 C 25.296875 14.3125 25.296875 14.3125 25 14.550781 Z M 25 14.550781 "/>
<path style=" stroke:none;fill-rule:nonzero;fill:rgb(0%,95.294118%,68.627453%);fill-opacity:1;" d="M 4.199219 13.671875 C 4.335938 13.949219 4.320312 14.144531 4.296875 14.453125 C 4.175781 14.761719 4.175781 14.761719 4.015625 15.070312 C 3.964844 15.171875 3.910156 15.273438 3.859375 15.378906 C 3.710938 15.625 3.710938 15.625 3.515625 15.722656 C 2.902344 15.777344 2.902344 15.777344 2.636719 15.5625 C 2.46875 15.164062 2.578125 14.890625 2.734375 14.5 C 2.90625 14.128906 3.058594 13.832031 3.363281 13.550781 C 3.703125 13.449219 3.882812 13.523438 4.199219 13.671875 Z M 4.199219 13.671875 "/>
</g>
</svg>
